HIERARCHY
ROOT Hips
{
	OFFSET 0.000000 0.000000 0.000000
	CHANNELS 6 Xposition Yposition Zposition Zrotation Yrotation Xrotation 
	JOINT LHipJoint
	{
		OFFSET 0.000000 0.000000 0.000000
		CHANNELS 3 Zrotation Yrotation Xrotation
		JOINT LeftUpLeg
		{
			OFFSET 1.363060 -1.794630 0.839290
			CHANNELS 3 Zrotation Yrotation Xrotation
			JOINT LeftLeg
			{
				OFFSET 2.448110 -6.726130 0.000000
				CHANNELS 3 Zrotation Yrotation Xrotation
				JOINT LeftFoot
				{
					OFFSET 2.562200 -7.039590 0.000000
					CHANNELS 3 Zrotation Yrotation Xrotation
					JOINT LeftToeBase
					{
						OFFSET 0.157640 -0.433110 2.322550
						CHANNELS 3 Zrotation Yrotation Xrotation
						End Site
						{
							OFFSET 0.000000 0.000000 0.000000
						}
					}
				}
			}
		}
	}
	JOINT RHipJoint
	{
		OFFSET 0.000000 0.000000 0.000000
		CHANNELS 3 Zrotation Yrotation Xrotation
		JOINT RightUpLeg
		{
			OFFSET -1.305520 -1.794630 0.839290
			CHANNELS 3 Zrotation Yrotation Xrotation
			JOINT RightLeg
			{
				OFFSET -2.542530 -6.985550 0.000000
				CHANNELS 3 Zrotation Yrotation Xrotation
				JOINT RightFoot
				{
					OFFSET -2.568260 -7.056230 0.000000
					CHANNELS 3 Zrotation Yrotation Xrotation
					JOINT RightToeBase
					{
						OFFSET -0.164730 -0.452590 2.363150
						CHANNELS 3 Zrotation Yrotation Xrotation
						End Site
						{
							OFFSET 0.000000 0.000000 0.000000
						}
					}
				}
			}
		}
	}
	JOINT LowerBack
	{
		OFFSET 0.000000 0.000000 0.000000
		CHANNELS 3 Zrotation Yrotation Xrotation
		JOINT Spine
		{
			OFFSET 0.028270 2.035590 -0.193380
			CHANNELS 3 Zrotation Yrotation Xrotation
			JOINT Spine1
			{
				OFFSET 0.056720 2.048850 -0.042750
				CHANNELS 3 Zrotation Yrotation Xrotation
				JOINT Neck
				{
					OFFSET 0.000000 0.000000 0.000000
					CHANNELS 3 Zrotation Yrotation Xrotation
					JOINT Neck1
					{
						OFFSET -0.054170 1.746240 0.172020
						CHANNELS 3 Zrotation Yrotation Xrotation
						JOINT Head
						{
							OFFSET 0.104070 1.761360 -0.123970
							CHANNELS 3 Zrotation Yrotation Xrotation
							End Site
							{
								OFFSET 0.000000 0.000000 0.000000
							}
						}
					}
				}
				JOINT LeftShoulder
				{
					OFFSET 0.000000 0.000000 0.000000
					CHANNELS 3 Zrotation Yrotation Xrotation
					JOINT LeftArm
					{
						OFFSET 3.362410 1.200890 -0.311210
						CHANNELS 3 Zrotation Yrotation Xrotation
						JOINT LeftForeArm
						{
							OFFSET 4.983000 -0.000000 -0.000000
							CHANNELS 3 Zrotation Yrotation Xrotation
							JOINT LeftHand
							{
								OFFSET 3.483560 -0.000000 -0.000000
								CHANNELS 3 Zrotation Yrotation Xrotation
								JOINT LeftFingerBase
								{
									OFFSET 0.000000 0.000000 0.000000
									CHANNELS 3 Zrotation Yrotation Xrotation
									JOINT LeftHandIndex1
									{
										OFFSET 0.715260 -0.000000 -0.000000
										CHANNELS 3 Zrotation Yrotation Xrotation
										End Site
										{
											OFFSET 0.000000 0.000000 0.000000
										}
									}
								}
								JOINT LThumb
								{
									OFFSET 0.000000 0.000000 0.000000
									CHANNELS 3 Zrotation Yrotation Xrotation
									End Site
									{
										OFFSET 0.000000 0.000000 0.000000
									}
								}
							}
						}
					}
				}
				JOINT RightShoulder
				{
					OFFSET 0.000000 0.000000 0.000000
					CHANNELS 3 Zrotation Yrotation Xrotation
					JOINT RightArm
					{
						OFFSET -3.136600 1.374050 -0.404650
						CHANNELS 3 Zrotation Yrotation Xrotation
						JOINT RightForeArm
						{
							OFFSET -5.241900 -0.000000 -0.000000
							CHANNELS 3 Zrotation Yrotation Xrotation
							JOINT RightHand
							{
								OFFSET -3.444170 -0.000000 -0.000000
								CHANNELS 3 Zrotation Yrotation Xrotation
								JOINT RightFingerBase
								{
									OFFSET 0.000000 0.000000 0.000000
									CHANNELS 3 Zrotation Yrotation Xrotation
									JOINT RightHandIndex1
									{
										OFFSET -0.622530 -0.000000 -0.000000
										CHANNELS 3 Zrotation Yrotation Xrotation
										End Site
										{
											OFFSET 0.000000 0.000000 0.000000
										}
									}
								}
								JOINT RThumb
								{
									OFFSET 0.000000 0.000000 0.000000
									CHANNELS 3 Zrotation Yrotation Xrotation
									End Site
									{
										OFFSET 0.000000 0.000000 0.000000
									}
								}
							}
						}
					}
				}
			}
		}
	}
}
MOTION
Frames: 6
Frame Time: 0.008333
-1.873534 16.886951 -1.046385 -152.015344 81.368489 -144.876368 -9.902450 1.855575 3.363022 -21.211724 7.271684 -30.264498 -3.300940 -1.104194 10.262564 1.122233 4.096615 -9.769122 -0.158700 0.000000 -5.421500 8.892152 -5.510530 0.040615 10.847366 -16.175051 0.633671 2.586938 -2.031048 27.075858 1.339686 15.814841 3.909758 2.410400 0.000000 -69.359800 0.224238 2.476346 -5.812537 -1.340214 2.131155 -3.846072 -8.044728 2.115389 1.755881 12.502561 -6.537876 -8.294392 -3.760955 -0.295691 -0.167445 0.000000 0.000000 0.000000 -0.231575 23.703490 1.029959 -61.266310 19.329213 -15.414443 -4.060686 -22.560778 0.005410 5.469354 1.121852 0.059456 -0.156085 -0.081409 -0.000000 0.000000 0.000000 0.000000 0.000000 0.000000 0.000000 19.619186 1.410342 -0.630748 64.105264 20.642020 5.053216 2.115914 47.861963 0.008173 0.123178 7.243258 0.006995 0.038550 -0.256142 -0.000000 0.000000 0.000000 0.000000 0.000000 0.000000 0.000000 
-1.723648 16.894218 -1.072504 -155.252923 81.023517 -148.137688 -9.834600 1.982050 3.508878 -21.356226 6.583560 -29.709989 -3.286223 -1.038960 10.632022 1.091510 4.026029 -9.475949 -0.124200 0.000000 -3.655400 9.183773 -5.527934 -0.083479 9.851174 -17.110617 -0.579446 2.287366 -2.244608 29.778413 1.310642 17.066380 5.701897 3.098200 0.000000 -72.107700 -0.141546 2.380233 -5.868421 -1.416851 2.064902 -3.859608 -8.075566 2.046267 1.754719 12.611117 -6.636650 -8.287527 -3.785298 -0.297828 -0.166392 0.000000 0.000000 0.000000 -0.227619 23.556464 1.003726 -61.285636 18.970351 -15.491938 -4.072969 -22.312688 0.005493 5.506802 1.074226 0.057454 -0.155138 -0.080228 -0.000000 0.000000 0.000000 0.000000 0.000000 0.000000 0.000000 19.858577 1.248155 -0.649498 64.666279 20.015486 4.584977 2.158930 47.318535 0.008435 0.148082 7.240032 0.008495 0.039870 -0.251966 -0.000000 0.000000 0.000000 0.000000 0.000000 0.000000 0.000000 
-1.578057 16.901718 -1.101002 -158.186047 80.629288 -151.080636 -9.765525 2.094774 3.645557 -21.496145 5.880802 -29.130877 -3.269947 -0.980011 10.955138 1.065458 3.969891 -9.214827 -0.094400 -0.000000 -1.934800 9.459719 -5.512190 -0.207944 8.933812 -17.904500 -1.832345 1.979891 -2.435705 32.503613 1.244980 18.030574 7.446095 3.805201 -0.000000 -74.446000 -0.458411 2.282650 -5.904726 -1.478838 1.994381 -3.868003 -8.089818 1.973109 1.754155 12.665712 -6.731225 -8.282165 -3.802222 -0.299295 -0.165517 0.000000 0.000000 0.000000 -0.278747 23.400061 0.979298 -61.347620 18.530702 -15.558516 -4.081548 -22.043311 0.005563 5.562606 1.029716 0.055650 -0.153838 -0.078732 -0.000000 0.000000 0.000000 0.000000 0.000000 0.000000 0.000000 20.003811 1.080663 -0.672054 65.266086 19.377197 4.063218 2.201616 46.725690 0.008657 0.168444 7.219524 0.009688 0.041244 -0.247474 -0.000000 0.000000 0.000000 0.000000 0.000000 0.000000 0.000000 
-1.437095 16.909002 -1.131774 -160.805470 80.198768 -153.701289 -9.696024 2.191520 3.767248 -21.633370 5.180903 -28.511307 -3.252338 -0.929394 11.220922 1.046312 3.939766 -8.998768 -0.070799 -0.000001 -0.282800 9.715815 -5.463768 -0.333385 8.098717 -18.537950 -3.104267 1.673994 -2.606508 35.227511 1.152815 18.629254 9.046386 4.455400 -0.000000 -76.333301 -0.726711 2.185277 -5.914254 -1.526705 1.921579 -3.869781 -8.087835 1.898124 1.754805 12.668580 -6.824710 -8.282259 -3.811870 -0.300050 -0.165954 0.000000 0.000000 0.000000 -0.384442 23.239125 0.957204 -61.452043 18.007238 -15.606046 -4.085529 -21.761529 0.005620 5.638586 0.989408 0.054247 -0.152157 -0.076935 -0.000000 0.000000 0.000000 0.000000 0.000000 0.000000 0.000000 20.060072 0.907187 -0.695520 65.890749 18.741955 3.502679 2.243977 46.085349 0.008823 0.177148 7.185624 0.010177 0.042756 -0.242773 -0.000000 0.000000 0.000000 0.000000 0.000000 0.000000 0.000000 
-1.300967 16.915779 -1.165288 -163.004126 79.742658 -155.892410 -9.633758 2.270020 3.866941 -21.752371 4.527120 -27.873994 -3.234135 -0.886068 11.449870 1.031461 3.913003 -8.849900 179.944300 0.000000 -1.284300 9.940522 -5.387910 -0.451861 7.383613 -18.972709 -4.381728 1.378088 -2.760288 37.918168 1.044884 18.777525 10.413938 4.960200 -0.000000 -77.733701 -0.923156 2.092628 -5.899792 -1.556510 1.848835 -3.865597 -8.071113 1.823865 1.756048 12.619127 -6.910032 -8.289237 -3.815108 -0.300160 -0.168006 0.000000 0.000000 0.000000 -0.553323 23.082522 0.937470 -61.595572 17.401656 -15.621691 -4.083585 -21.478583 0.005667 5.735709 0.954332 0.053243 -0.150036 -0.074906 -0.000000 0.000000 0.000000 0.000000 0.000000 0.000000 0.000000 20.028502 0.739140 -0.717946 66.523590 18.107607 2.909926 2.285848 45.407922 0.008937 0.173196 7.142465 0.009662 0.044408 -0.237933 -0.000000 0.000000 0.000000 0.000000 0.000000 0.000000 0.000000 
-1.169620 16.921950 -1.201573 -164.789216 79.278486 -157.663557 -9.581676 2.330522 3.940128 -21.851174 3.946146 -27.222201 -3.216454 -0.850724 11.639616 1.019843 3.881877 -8.775515 179.950099 0.000001 -2.741000 10.131757 -5.289035 -0.559660 6.789670 -19.198820 -5.657639 1.096359 -2.900779 40.555068 0.929541 18.440687 11.476238 5.248001 -0.000000 -78.626700 -1.044754 2.007148 -5.861892 -1.568412 1.778207 -3.855649 -8.041865 1.752479 1.758354 12.523229 -6.987363 -8.305322 -3.813236 -0.299710 -0.172328 0.000000 0.000000 0.000000 -0.786984 22.937901 0.919498 -61.772495 16.716819 -15.593130 -4.075030 -21.204416 0.005707 5.853702 0.925113 0.052638 -0.147445 -0.072721 -0.000000 0.000000 0.000000 0.000000 0.000000 0.000000 0.000000 19.922474 0.579291 -0.736893 67.146684 17.482684 2.302901 2.327706 44.695804 0.008998 0.152754 7.095783 0.008244 0.046264 -0.233015 0.000000 0.000000 0.000000 0.000000 0.000000 0.000000 0.000000 
